<svg version="1.1" preserveAspectRatio="none" xmlns="http://www.w3.org/2000/svg" width="500" height="500" viewBox="0 0 500 500"><rect width="100%" height="100%" fill="#FFFFFF" fill-opacity="1"/><svg viewBox="154.4161 588.9581 352.6534 162" width="333" height="152.97172804799274" x="83.5px" y="173.5141px" xmlns="http://www.w3.org/2000/svg" xmlns:xlink="http://www.w3.org/1999/xlink" preserveAspectRatio="none"><defs></defs><style>.companyName {fill:#121212;fill-opacity:1;}.icon3-str {stroke:#5F5F5F;stroke-opacity:1;}.text {fill:#121212;fill-opacity:1;}</style><g opacity="1" transform="rotate(0 204.4626 726.9581)">
<svg width="252.5604" height="24" x="204.4626" y="726.9581" version="1.1" preserveAspectRatio="none" viewBox="2.08 -29.88 398.20000000000005 37.84">
  <g transform="matrix(1 0 0 1 0 0)" class="text"><path id="id-6izo4zJp17" d="M16.80 0.24Q12.64 0.24 9.26-1.62Q5.88-3.48 3.98-6.72Q2.08-9.96 2.08-14L2.08-14Q2.08-18.04 3.98-21.28Q5.88-24.52 9.26-26.38Q12.64-28.24 16.80-28.24L16.80-28.24Q20.96-28.24 24.30-26.40Q27.64-24.56 29.56-21.30Q31.48-18.04 31.48-14L31.48-14Q31.48-9.96 29.56-6.70Q27.64-3.44 24.30-1.60Q20.96 0.24 16.80 0.24L16.80 0.24ZM16.80-2.40Q20.12-2.40 22.80-3.90Q25.48-5.40 27-8.06Q28.52-10.72 28.52-14L28.52-14Q28.52-17.28 27-19.94Q25.48-22.60 22.80-24.10Q20.12-25.60 16.80-25.60L16.80-25.60Q13.48-25.60 10.78-24.10Q8.08-22.60 6.54-19.94Q5-17.28 5-14L5-14Q5-10.72 6.54-8.06Q8.08-5.40 10.78-3.90Q13.48-2.40 16.80-2.40L16.80-2.40Z M54-21.04L56.80-21.04L47.44 0L44.52 0L35.20-21.04L38.16-21.04L46.04-3.12L54-21.04Z M80.16-10.52L80.12-9.64L62.52-9.64Q62.76-6.36 65.04-4.34Q67.32-2.32 70.80-2.32L70.80-2.32Q72.76-2.32 74.40-3.02Q76.04-3.72 77.24-5.08L77.24-5.08L78.84-3.24Q77.44-1.56 75.34-0.68Q73.24 0.20 70.72 0.20L70.72 0.20Q67.48 0.20 64.98-1.18Q62.48-2.56 61.08-5Q59.68-7.44 59.68-10.52L59.68-10.52Q59.68-13.60 61.02-16.04Q62.36-18.48 64.70-19.84Q67.04-21.20 69.96-21.20L69.96-21.20Q72.88-21.20 75.20-19.84Q77.52-18.48 78.84-16.06Q80.16-13.64 80.16-10.52L80.16-10.52ZM69.96-18.76Q66.92-18.76 64.86-16.82Q62.80-14.88 62.52-11.76L62.52-11.76L77.44-11.76Q77.16-14.88 75.10-16.82Q73.04-18.76 69.96-18.76L69.96-18.76Z M90.28-16.92Q91.28-19.04 93.26-20.12Q95.24-21.20 98.16-21.20L98.16-21.20L98.16-18.44L97.48-18.48Q94.16-18.48 92.28-16.44Q90.40-14.40 90.40-10.72L90.40-10.72L90.40 0L87.56 0L87.56-21.04L90.28-21.04L90.28-16.92Z M138.36-28L141.28-28L141.28 0L138.84 0L120.84-22.72L120.84 0L117.88 0L117.88-28L120.32-28L138.36-5.28L138.36-28Z M158.36-27.48Q156.52-27.48 155.58-26.48Q154.64-25.48 154.64-23.52L154.64-23.52L154.64-21.04L161.12-21.04L161.12-18.64L154.72-18.64L154.72 0L151.88 0L151.88-18.64L148.12-18.64L148.12-21.04L151.88-21.04L151.88-23.64Q151.88-26.52 153.54-28.20Q155.20-29.88 158.24-29.88L158.24-29.88Q159.44-29.88 160.56-29.54Q161.68-29.20 162.44-28.56L162.44-28.56L161.48-26.44Q160.24-27.48 158.36-27.48L158.36-27.48Z M176.64-3.32L177.64-1.28Q176.84-0.56 175.66-0.18Q174.48 0.20 173.20 0.20L173.20 0.20Q170.24 0.20 168.64-1.40Q167.04-3 167.04-5.92L167.04-5.92L167.04-18.64L163.28-18.64L163.28-21.04L167.04-21.04L167.04-25.64L169.88-25.64L169.88-21.04L176.28-21.04L176.28-18.64L169.88-18.64L169.88-6.08Q169.88-4.20 170.82-3.22Q171.76-2.24 173.52-2.24L173.52-2.24Q174.40-2.24 175.22-2.52Q176.04-2.80 176.64-3.32L176.64-3.32Z M200.04-2.56L216.88-2.56L216.88 0L197.08 0L197.08-28L216.28-28L216.28-25.44L200.04-25.44L200.04-15.48L214.52-15.48L214.52-12.96L200.04-12.96L200.04-2.56Z M240.88 0L237.64 0L230.96-8.80L224.24 0L221.04 0L229.36-10.80L221.44-21.04L224.64-21.04L230.96-12.80L237.28-21.04L240.40-21.04L232.48-10.80L240.88 0Z M255.16 0.20Q252.04 0.20 249.58-1.16Q247.12-2.52 245.72-4.98Q244.32-7.44 244.32-10.52L244.32-10.52Q244.32-13.60 245.72-16.04Q247.12-18.48 249.58-19.84Q252.04-21.20 255.16-21.20L255.16-21.20Q257.88-21.20 260.02-20.14Q262.16-19.08 263.40-17.04L263.40-17.04L261.28-15.60Q260.24-17.16 258.64-17.94Q257.04-18.72 255.16-18.72L255.16-18.72Q252.88-18.72 251.06-17.70Q249.24-16.68 248.22-14.80Q247.20-12.92 247.20-10.52L247.20-10.52Q247.20-8.08 248.22-6.22Q249.24-4.36 251.06-3.34Q252.88-2.32 255.16-2.32L255.16-2.32Q257.04-2.32 258.64-3.08Q260.24-3.84 261.28-5.40L261.28-5.40L263.40-3.96Q262.16-1.92 260.00-0.86Q257.84 0.20 255.16 0.20L255.16 0.20Z M280.96-21.20Q284.92-21.20 287.26-18.90Q289.60-16.60 289.60-12.20L289.60-12.20L289.60 0L286.76 0L286.76-11.92Q286.76-15.20 285.12-16.92Q283.48-18.64 280.44-18.64L280.44-18.64Q277.04-18.64 275.06-16.62Q273.08-14.60 273.08-11.04L273.08-11.04L273.08 0L270.24 0L270.24-29.68L273.08-29.68L273.08-17.36Q274.24-19.20 276.28-20.20Q278.32-21.20 280.96-21.20L280.96-21.20Z M306.28-21.20Q310.40-21.20 312.60-19.14Q314.80-17.08 314.80-13.04L314.80-13.04L314.80 0L312.08 0L312.08-3.28Q311.12-1.64 309.26-0.72Q307.40 0.20 304.84 0.20L304.84 0.20Q301.32 0.20 299.24-1.48Q297.16-3.16 297.16-5.92L297.16-5.92Q297.16-8.60 299.10-10.24Q301.04-11.88 305.28-11.88L305.28-11.88L311.96-11.88L311.96-13.16Q311.96-15.88 310.44-17.30Q308.92-18.72 306-18.72L306-18.72Q304-18.72 302.16-18.06Q300.32-17.40 299-16.24L299-16.24L297.72-18.36Q299.32-19.72 301.56-20.46Q303.80-21.20 306.28-21.20L306.28-21.20ZM305.28-2.04Q307.68-2.04 309.40-3.14Q311.12-4.24 311.96-6.32L311.96-6.32L311.96-9.76L305.36-9.76Q299.96-9.76 299.96-6L299.96-6Q299.96-4.16 301.36-3.10Q302.76-2.04 305.28-2.04L305.28-2.04Z M334.84-21.20Q338.80-21.20 341.14-18.90Q343.48-16.60 343.48-12.20L343.48-12.20L343.48 0L340.64 0L340.64-11.92Q340.64-15.20 339-16.92Q337.36-18.64 334.32-18.64L334.32-18.64Q330.92-18.64 328.94-16.62Q326.96-14.60 326.96-11.04L326.96-11.04L326.96 0L324.12 0L324.12-21.04L326.84-21.04L326.84-17.16Q328-19.08 330.06-20.14Q332.12-21.20 334.84-21.20L334.84-21.20Z M369.64-21.04L372.36-21.04L372.36-2.56Q372.36 2.80 369.74 5.38Q367.12 7.96 361.84 7.96L361.84 7.96Q358.92 7.96 356.30 7.10Q353.68 6.24 352.04 4.72L352.04 4.72L353.48 2.56Q355 3.92 357.18 4.68Q359.36 5.44 361.76 5.44L361.76 5.44Q365.76 5.44 367.64 3.58Q369.52 1.72 369.52-2.20L369.52-2.20L369.52-4.88Q368.20-2.88 366.06-1.84Q363.92-0.80 361.32-0.80L361.32-0.80Q358.36-0.80 355.94-2.10Q353.52-3.40 352.14-5.74Q350.76-8.08 350.76-11.04L350.76-11.04Q350.76-14 352.14-16.32Q353.52-18.64 355.92-19.92Q358.32-21.20 361.32-21.20L361.32-21.20Q364-21.20 366.16-20.12Q368.32-19.04 369.64-17L369.64-17L369.64-21.04ZM361.60-3.32Q363.88-3.32 365.72-4.30Q367.56-5.28 368.58-7.04Q369.60-8.80 369.60-11.04L369.60-11.04Q369.60-13.28 368.58-15.02Q367.56-16.76 365.74-17.74Q363.92-18.72 361.60-18.72L361.60-18.72Q359.32-18.72 357.50-17.76Q355.68-16.80 354.66-15.04Q353.64-13.28 353.64-11.04L353.64-11.04Q353.64-8.80 354.66-7.04Q355.68-5.28 357.50-4.30Q359.32-3.32 361.60-3.32L361.60-3.32Z M400.28-10.52L400.24-9.64L382.64-9.64Q382.88-6.36 385.16-4.34Q387.44-2.32 390.92-2.32L390.92-2.32Q392.88-2.32 394.52-3.02Q396.16-3.72 397.36-5.08L397.36-5.08L398.96-3.24Q397.56-1.56 395.46-0.68Q393.36 0.20 390.84 0.20L390.84 0.20Q387.60 0.20 385.10-1.18Q382.60-2.56 381.20-5Q379.80-7.44 379.80-10.52L379.80-10.52Q379.80-13.60 381.14-16.04Q382.48-18.48 384.82-19.84Q387.16-21.20 390.08-21.20L390.08-21.20Q393.00-21.20 395.32-19.84Q397.64-18.48 398.96-16.06Q400.28-13.64 400.28-10.52L400.28-10.52ZM390.08-18.76Q387.04-18.76 384.98-16.82Q382.92-14.88 382.64-11.76L382.64-11.76L397.56-11.76Q397.28-14.88 395.22-16.82Q393.16-18.76 390.08-18.76L390.08-18.76Z"/></g>
</svg>
</g><g opacity="1" transform="rotate(0 154.4161 588.9581)">
<svg width="352.6534" height="120" x="154.4161" y="588.9581" version="1.1" preserveAspectRatio="none" viewBox="0.8 -22.88 68.4 23.28">
  <g transform="matrix(1 0 0 1 0 0)" class="companyName"><path id="id-D6z1nYkh3" d="M17.64-11.24Q17.64-16.36 16.26-19.22Q14.88-22.08 12.46-22.08Q10.04-22.08 8.64-19.20Q7.24-16.32 7.24-11.16Q7.24-6 8.58-3.20Q9.92-0.40 12.44-0.40L12.44-0.40Q17.64-0.40 17.64-11.24L17.64-11.24ZM24.08-11.02Q24.08-5.52 20.84-2.56Q17.60 0.40 12.40 0.40Q7.20 0.40 4-2.54Q0.80-5.48 0.80-10.98Q0.80-16.48 4-19.68Q7.20-22.88 12.50-22.88Q17.80-22.88 20.94-19.70Q24.08-16.52 24.08-11.02Z M28.88-18.84L28.88-0.80L32.08-0.80L32.08 0L25.68 0L25.68-0.80L28.08-0.80L28.08-19.84Q26.80-21.60 25.68-21.60L25.68-21.60L25.68-22.40L33.16-22.40L44.40-9.08L44.40-21.60L41.20-21.60L41.20-22.40L48-22.40L48-21.60L45.20-21.60L45.20 0.40L44.40 0.40L28.88-18.84Z M58.40-0.80L62.40-0.80Q68.40-0.80 68.40-7.60L68.40-7.60L69.20-7.60L69.20 0L50.40 0L50.40-0.80L52.40-0.80L52.40-21.60L50.40-21.60L50.40-22.40L68.80-22.40L68.80-15.60L68-15.60Q68-19.16 66.58-20.38Q65.16-21.60 62-21.60L62-21.60L58.40-21.60L58.40-12L60-12Q62.88-12 63.64-12.72Q64.40-13.44 64.40-15.60L64.40-15.60L65.20-15.60L65.20-7.60L64.40-7.60Q64.40-9.84 63.64-10.52Q62.88-11.20 60-11.20L60-11.20L58.40-11.20L58.40-0.80Z"/></g>
</svg>
</g></svg></svg>